<svg xmlns="http://www.w3.org/2000/svg" xmlns:rdkit="http://www.rdkit.org/xml" xmlns:xlink="http://www.w3.org/1999/xlink" version="1.1" baseProfile="full" xml:space="preserve" width="300px" height="300px" viewBox="0 0 300 300">
<!-- END OF HEADER -->
<rect style="opacity:1.0;fill:#FFFFFF;stroke:none" width="300.0" height="300.0" x="0.0" y="0.0"> </rect>
<path class="bond-0 atom-0 atom-1" d="M 237.9,15.0 L 230.5,40.3" style="fill:none;fill-rule:evenodd;stroke:#000000;stroke-width:2.0px;stroke-linecap:butt;stroke-linejoin:miter;stroke-opacity:1"/>
<path class="bond-0 atom-0 atom-1" d="M 230.5,40.3 L 223.1,65.6" style="fill:none;fill-rule:evenodd;stroke:#0000FF;stroke-width:2.0px;stroke-linecap:butt;stroke-linejoin:miter;stroke-opacity:1"/>
<path class="bond-1 atom-1 atom-2" d="M 229.4,90.5 L 235.9,98.6" style="fill:none;fill-rule:evenodd;stroke:#0000FF;stroke-width:2.0px;stroke-linecap:butt;stroke-linejoin:miter;stroke-opacity:1"/>
<path class="bond-1 atom-1 atom-2" d="M 235.9,98.6 L 242.5,106.6" style="fill:none;fill-rule:evenodd;stroke:#000000;stroke-width:2.0px;stroke-linecap:butt;stroke-linejoin:miter;stroke-opacity:1"/>
<path class="bond-2 atom-2 atom-3" d="M 242.5,106.6 L 232.2,130.1" style="fill:none;fill-rule:evenodd;stroke:#000000;stroke-width:2.0px;stroke-linecap:butt;stroke-linejoin:miter;stroke-opacity:1"/>
<path class="bond-2 atom-2 atom-3" d="M 232.2,130.1 L 221.9,153.6" style="fill:none;fill-rule:evenodd;stroke:#0000FF;stroke-width:2.0px;stroke-linecap:butt;stroke-linejoin:miter;stroke-opacity:1"/>
<path class="bond-2 atom-2 atom-3" d="M 230.9,108.2 L 221.8,128.9" style="fill:none;fill-rule:evenodd;stroke:#000000;stroke-width:2.0px;stroke-linecap:butt;stroke-linejoin:miter;stroke-opacity:1"/>
<path class="bond-2 atom-2 atom-3" d="M 221.8,128.9 L 212.8,149.6" style="fill:none;fill-rule:evenodd;stroke:#0000FF;stroke-width:2.0px;stroke-linecap:butt;stroke-linejoin:miter;stroke-opacity:1"/>
<path class="bond-3 atom-3 atom-4" d="M 206.4,167.9 L 191.0,170.7" style="fill:none;fill-rule:evenodd;stroke:#0000FF;stroke-width:2.0px;stroke-linecap:butt;stroke-linejoin:miter;stroke-opacity:1"/>
<path class="bond-3 atom-3 atom-4" d="M 191.0,170.7 L 175.5,173.6" style="fill:none;fill-rule:evenodd;stroke:#000000;stroke-width:2.0px;stroke-linecap:butt;stroke-linejoin:miter;stroke-opacity:1"/>
<path class="bond-4 atom-4 atom-5" d="M 175.5,173.6 L 177.2,121.3" style="fill:none;fill-rule:evenodd;stroke:#000000;stroke-width:2.0px;stroke-linecap:butt;stroke-linejoin:miter;stroke-opacity:1"/>
<path class="bond-4 atom-4 atom-5" d="M 185.9,161.6 L 187.0,125.5" style="fill:none;fill-rule:evenodd;stroke:#000000;stroke-width:2.0px;stroke-linecap:butt;stroke-linejoin:miter;stroke-opacity:1"/>
<path class="bond-5 atom-5 atom-6" d="M 177.2,121.3 L 139.6,119.3" style="fill:none;fill-rule:evenodd;stroke:#000000;stroke-width:2.0px;stroke-linecap:butt;stroke-linejoin:miter;stroke-opacity:1"/>
<path class="bond-6 atom-6 atom-7" d="M 144.6,119.6 L 145.5,101.8" style="fill:none;fill-rule:evenodd;stroke:#000000;stroke-width:2.0px;stroke-linecap:butt;stroke-linejoin:miter;stroke-opacity:1"/>
<path class="bond-6 atom-6 atom-7" d="M 145.5,101.8 L 146.3,84.1" style="fill:none;fill-rule:evenodd;stroke:#FF0000;stroke-width:2.0px;stroke-linecap:butt;stroke-linejoin:miter;stroke-opacity:1"/>
<path class="bond-6 atom-6 atom-7" d="M 134.3,126.4 L 135.5,101.4" style="fill:none;fill-rule:evenodd;stroke:#000000;stroke-width:2.0px;stroke-linecap:butt;stroke-linejoin:miter;stroke-opacity:1"/>
<path class="bond-6 atom-6 atom-7" d="M 135.5,101.4 L 136.4,83.6" style="fill:none;fill-rule:evenodd;stroke:#FF0000;stroke-width:2.0px;stroke-linecap:butt;stroke-linejoin:miter;stroke-opacity:1"/>
<path class="bond-7 atom-6 atom-8" d="M 139.6,119.3 L 124.7,139.2" style="fill:none;fill-rule:evenodd;stroke:#000000;stroke-width:2.0px;stroke-linecap:butt;stroke-linejoin:miter;stroke-opacity:1"/>
<path class="bond-7 atom-6 atom-8" d="M 124.7,139.2 L 109.8,159.1" style="fill:none;fill-rule:evenodd;stroke:#0000FF;stroke-width:2.0px;stroke-linecap:butt;stroke-linejoin:miter;stroke-opacity:1"/>
<path class="bond-8 atom-8 atom-9" d="M 100.5,184.1 L 100.6,204.6" style="fill:none;fill-rule:evenodd;stroke:#0000FF;stroke-width:2.0px;stroke-linecap:butt;stroke-linejoin:miter;stroke-opacity:1"/>
<path class="bond-8 atom-8 atom-9" d="M 100.6,204.6 L 100.6,225.2" style="fill:none;fill-rule:evenodd;stroke:#000000;stroke-width:2.0px;stroke-linecap:butt;stroke-linejoin:miter;stroke-opacity:1"/>
<path class="bond-9 atom-9 atom-10" d="M 100.6,216.5 L 86.1,237.7" style="fill:none;fill-rule:evenodd;stroke:#000000;stroke-width:2.0px;stroke-linecap:butt;stroke-linejoin:miter;stroke-opacity:1"/>
<path class="bond-9 atom-9 atom-10" d="M 86.1,237.7 L 71.5,258.9" style="fill:none;fill-rule:evenodd;stroke:#FF0000;stroke-width:2.0px;stroke-linecap:butt;stroke-linejoin:miter;stroke-opacity:1"/>
<path class="bond-9 atom-9 atom-10" d="M 106.6,225.3 L 94.3,243.3" style="fill:none;fill-rule:evenodd;stroke:#000000;stroke-width:2.0px;stroke-linecap:butt;stroke-linejoin:miter;stroke-opacity:1"/>
<path class="bond-9 atom-9 atom-10" d="M 94.3,243.3 L 79.7,264.5" style="fill:none;fill-rule:evenodd;stroke:#FF0000;stroke-width:2.0px;stroke-linecap:butt;stroke-linejoin:miter;stroke-opacity:1"/>
<path class="bond-10 atom-9 atom-11" d="M 100.6,225.2 L 114.1,225.5" style="fill:none;fill-rule:evenodd;stroke:#000000;stroke-width:2.0px;stroke-linecap:butt;stroke-linejoin:miter;stroke-opacity:1"/>
<path class="bond-10 atom-9 atom-11" d="M 114.1,225.5 L 127.5,225.8" style="fill:none;fill-rule:evenodd;stroke:#0000FF;stroke-width:2.0px;stroke-linecap:butt;stroke-linejoin:miter;stroke-opacity:1"/>
<path class="bond-11 atom-11 atom-12" d="M 137.8,238.4 L 138.3,260.7" style="fill:none;fill-rule:evenodd;stroke:#0000FF;stroke-width:2.0px;stroke-linecap:butt;stroke-linejoin:miter;stroke-opacity:1"/>
<path class="bond-11 atom-11 atom-12" d="M 138.3,260.7 L 138.9,283.0" style="fill:none;fill-rule:evenodd;stroke:#000000;stroke-width:2.0px;stroke-linecap:butt;stroke-linejoin:miter;stroke-opacity:1"/>
<path class="bond-12 atom-8 atom-13" d="M 90.4,171.7 L 75.9,171.9" style="fill:none;fill-rule:evenodd;stroke:#0000FF;stroke-width:2.0px;stroke-linecap:butt;stroke-linejoin:miter;stroke-opacity:1"/>
<path class="bond-12 atom-8 atom-13" d="M 75.9,171.9 L 61.3,172.1" style="fill:none;fill-rule:evenodd;stroke:#000000;stroke-width:2.0px;stroke-linecap:butt;stroke-linejoin:miter;stroke-opacity:1"/>
<path class="bond-13 atom-5 atom-1" d="M 177.2,121.3 L 193.3,104.8" style="fill:none;fill-rule:evenodd;stroke:#000000;stroke-width:2.0px;stroke-linecap:butt;stroke-linejoin:miter;stroke-opacity:1"/>
<path class="bond-13 atom-5 atom-1" d="M 193.3,104.8 L 209.4,88.3" style="fill:none;fill-rule:evenodd;stroke:#0000FF;stroke-width:2.0px;stroke-linecap:butt;stroke-linejoin:miter;stroke-opacity:1"/>
<path class="bond-14 atom-11 atom-4" d="M 146.5,213.5 L 161.0,193.5" style="fill:none;fill-rule:evenodd;stroke:#0000FF;stroke-width:2.0px;stroke-linecap:butt;stroke-linejoin:miter;stroke-opacity:1"/>
<path class="bond-14 atom-11 atom-4" d="M 161.0,193.5 L 175.5,173.6" style="fill:none;fill-rule:evenodd;stroke:#000000;stroke-width:2.0px;stroke-linecap:butt;stroke-linejoin:miter;stroke-opacity:1"/>
<path d="M 242.1,106.2 L 242.5,106.6 L 241.9,107.8" style="fill:none;stroke:#000000;stroke-width:2.0px;stroke-linecap:butt;stroke-linejoin:miter;stroke-opacity:1;"/>
<path d="M 141.5,119.4 L 139.6,119.3 L 138.9,120.3" style="fill:none;stroke:#000000;stroke-width:2.0px;stroke-linecap:butt;stroke-linejoin:miter;stroke-opacity:1;"/>
<path d="M 100.6,224.2 L 100.6,225.2 L 101.3,225.2" style="fill:none;stroke:#000000;stroke-width:2.0px;stroke-linecap:butt;stroke-linejoin:miter;stroke-opacity:1;"/>
<path class="atom-1" d="M 214.9 67.8 L 221.6 78.7 Q 222.3 79.8, 223.4 81.7 Q 224.4 83.7, 224.5 83.8 L 224.5 67.8 L 227.2 67.8 L 227.2 88.4 L 224.4 88.4 L 217.2 76.4 Q 216.3 75.0, 215.4 73.4 Q 214.6 71.9, 214.3 71.4 L 214.3 88.4 L 211.6 88.4 L 211.6 67.8 L 214.9 67.8 " fill="#0000FF"/>
<path class="atom-3" d="M 211.9 155.8 L 218.6 166.7 Q 219.3 167.7, 220.4 169.7 Q 221.4 171.6, 221.5 171.8 L 221.5 155.8 L 224.2 155.8 L 224.2 176.3 L 221.4 176.3 L 214.2 164.4 Q 213.3 163.0, 212.4 161.4 Q 211.5 159.8, 211.3 159.3 L 211.3 176.3 L 208.6 176.3 L 208.6 155.8 L 211.9 155.8 " fill="#0000FF"/>
<path class="atom-7" d="M 132.5 71.0 Q 132.5 66.1, 134.9 63.3 Q 137.4 60.5, 142.0 60.5 Q 146.5 60.5, 149.0 63.3 Q 151.4 66.1, 151.4 71.0 Q 151.4 76.0, 148.9 78.8 Q 146.5 81.7, 142.0 81.7 Q 137.4 81.7, 134.9 78.8 Q 132.5 76.0, 132.5 71.0 M 142.0 79.3 Q 145.1 79.3, 146.8 77.2 Q 148.5 75.1, 148.5 71.0 Q 148.5 67.0, 146.8 64.9 Q 145.1 62.9, 142.0 62.9 Q 138.8 62.9, 137.1 64.9 Q 135.4 66.9, 135.4 71.0 Q 135.4 75.2, 137.1 77.2 Q 138.8 79.3, 142.0 79.3 " fill="#FF0000"/>
<path class="atom-8" d="M 95.9 161.3 L 102.6 172.2 Q 103.3 173.3, 104.4 175.2 Q 105.5 177.2, 105.5 177.3 L 105.5 161.3 L 108.3 161.3 L 108.3 181.9 L 105.4 181.9 L 98.2 169.9 Q 97.4 168.5, 96.4 166.9 Q 95.6 165.3, 95.3 164.9 L 95.3 181.9 L 92.6 181.9 L 92.6 161.3 L 95.9 161.3 " fill="#0000FF"/>
<path class="atom-10" d="M 57.5 274.3 Q 57.5 269.4, 60.0 266.6 Q 62.4 263.9, 67.0 263.9 Q 71.6 263.9, 74.0 266.6 Q 76.4 269.4, 76.4 274.3 Q 76.4 279.3, 74.0 282.2 Q 71.5 285.0, 67.0 285.0 Q 62.5 285.0, 60.0 282.2 Q 57.5 279.4, 57.5 274.3 M 67.0 282.7 Q 70.1 282.7, 71.8 280.6 Q 73.5 278.5, 73.5 274.3 Q 73.5 270.3, 71.8 268.3 Q 70.1 266.2, 67.0 266.2 Q 63.9 266.2, 62.1 268.2 Q 60.4 270.3, 60.4 274.3 Q 60.4 278.5, 62.1 280.6 Q 63.9 282.7, 67.0 282.7 " fill="#FF0000"/>
<path class="atom-11" d="M 132.9 215.7 L 139.7 226.6 Q 140.3 227.6, 141.4 229.6 Q 142.5 231.5, 142.5 231.6 L 142.5 215.7 L 145.3 215.7 L 145.3 236.2 L 142.5 236.2 L 135.2 224.3 Q 134.4 222.9, 133.5 221.3 Q 132.6 219.7, 132.3 219.2 L 132.3 236.2 L 129.7 236.2 L 129.7 215.7 L 132.9 215.7 " fill="#0000FF"/>
</svg>